<svg width="188" height="71" viewBox="0 0 188 71" fill="none" xmlns="http://www.w3.org/2000/svg">
<g clip-path="url(#clip0)">
<path d="M24.5853 7.21801C24.5663 7.18701 26.5853 9.118 26.5853 9.118C26.5853 9.118 14.2393 21.253 11.9183 29.167C11.7083 29.167 -1.48177 34.967 7.38123 50.376C7.38123 50.376 5.62623 56.621 7.38123 61.712C7.40623 61.664 -7.11188 48.667 4.49012 26.941C4.49912 26.913 12.9073 12.927 24.5853 7.21801Z" fill="#00ADB5"/>
<path d="M9.60487 51.474C9.49987 51.537 6.71612 59.095 10.3441 63.144C10.3441 63.156 17.9289 73.814 35.1439 68.944C35.2489 69.05 49.4772 64.371 52.1332 48.368C52.1332 48.368 53.9249 34.026 45.0629 23.568C44.9579 23.568 51.1842 36.441 40.7372 47.838C40.7202 47.855 27.3669 61.838 9.60487 51.474Z" fill="#00ADB5"/>
<path d="M24.5478 53.087C24.5558 53.064 39.7332 46.746 38.5092 28.98C38.5342 28.972 37.2908 15.506 20.7338 0.00300598C20.5708 0.00300598 40.4071 11.825 43.2441 23.049C43.2391 23.048 50.0218 48.535 24.5478 53.087Z" fill="#00ADB5"/>
<path d="M22.3572 53.099V50.899C22.3572 50.899 29.175 49.113 29.825 44.649C29.825 44.487 30.3121 39.454 26.9031 38.886C26.9031 39.13 27.3888 37.993 28.0388 37.425C28.0388 37.263 26.9031 37.425 26.9031 37.425C26.9031 37.425 26.903 31.581 21.22 29.957C21.22 29.957 11.811 27.909 7.99 35.152C7.99 35.314 4.17495 42.863 10.2629 49.113C10.2629 49.109 16.3862 55.29 22.3572 53.099Z" fill="#13BFB1"/>
<path d="M30.1028 3.85901C30.1028 3.85901 36.5778 0.0510153 38.8318 1.52588e-05C36.1285 1.30606 33.6563 3.04381 31.512 5.145L30.1028 3.85901Z" fill="#00ADB5"/>
<path d="M87.814 49V31.14L80.86 44.44H78.01L71.056 31.14V49H65.812V22.02H71.436L79.416 37.372L87.472 22.02H93.058V49H87.814ZM117.425 44.402V49H98.6909V22.02H117.083V26.618H103.935V33.116H115.297V37.372H103.935V44.402H117.425ZM121.513 49V22.02H131.317C133.521 22.02 135.447 22.3747 137.093 23.084C138.765 23.7933 140.159 24.756 141.273 25.972C142.388 27.188 143.224 28.6193 143.781 30.266C144.339 31.8873 144.617 33.6227 144.617 35.472C144.617 37.524 144.301 39.386 143.667 41.058C143.059 42.7047 142.173 44.1233 141.007 45.314C139.842 46.4793 138.436 47.3913 136.789 48.05C135.168 48.6833 133.344 49 131.317 49H121.513ZM139.335 35.472C139.335 34.18 139.158 32.9893 138.803 31.9C138.449 30.8107 137.929 29.8733 137.245 29.088C136.561 28.3027 135.713 27.6947 134.699 27.264C133.711 26.8333 132.584 26.618 131.317 26.618H126.757V44.402H131.317C132.609 44.402 133.749 44.174 134.737 43.718C135.751 43.262 136.587 42.6413 137.245 41.856C137.929 41.0453 138.449 40.0953 138.803 39.006C139.158 37.9167 139.335 36.7387 139.335 35.472ZM148.714 49V22.02H153.958V49H148.714ZM157.953 35.32C157.953 33.6733 158.245 32.052 158.827 30.456C159.435 28.8347 160.309 27.3907 161.449 26.124C162.589 24.8573 163.983 23.8313 165.629 23.046C167.276 22.2607 169.151 21.868 171.253 21.868C173.736 21.868 175.877 22.4127 177.675 23.502C179.499 24.5913 180.855 26.01 181.741 27.758L177.713 30.532C177.359 29.772 176.928 29.1387 176.421 28.632C175.915 28.1 175.37 27.682 174.787 27.378C174.205 27.074 173.597 26.8587 172.963 26.732C172.33 26.58 171.709 26.504 171.101 26.504C169.784 26.504 168.631 26.77 167.643 27.302C166.681 27.834 165.87 28.5307 165.211 29.392C164.578 30.228 164.097 31.1907 163.767 32.28C163.438 33.344 163.273 34.408 163.273 35.472C163.273 36.6627 163.463 37.8153 163.843 38.93C164.223 40.0193 164.755 40.982 165.439 41.818C166.149 42.654 166.985 43.3253 167.947 43.832C168.935 44.3387 170.012 44.592 171.177 44.592C171.785 44.592 172.419 44.516 173.077 44.364C173.736 44.212 174.357 43.9713 174.939 43.642C175.547 43.3127 176.105 42.8947 176.611 42.388C177.118 41.856 177.523 41.2227 177.827 40.488L182.121 42.958C181.691 43.9713 181.07 44.8707 180.259 45.656C179.474 46.416 178.575 47.062 177.561 47.594C176.573 48.126 175.509 48.5313 174.369 48.81C173.229 49.0887 172.115 49.228 171.025 49.228C169.1 49.228 167.339 48.8227 165.743 48.012C164.147 47.2013 162.767 46.15 161.601 44.858C160.461 43.5407 159.562 42.0587 158.903 40.412C158.27 38.74 157.953 37.0427 157.953 35.32Z" fill="#00ADB5"/>
<path d="M29.203 63.742H31.103C31.0839 63.7655 31.0632 63.7875 31.041 63.808C31.0203 63.8267 31.0017 63.8423 30.985 63.855L30.966 63.88L27.083 67.618C27.0097 67.6899 26.9112 67.7302 26.8085 67.7302C26.7058 67.7302 26.6073 67.6899 26.534 67.618L22.641 63.863C22.5915 63.8295 22.5473 63.7887 22.51 63.742H24.81C24.8992 63.7427 24.9859 63.7131 25.056 63.658C25.1265 63.605 25.1761 63.5289 25.196 63.443L25.633 61.69L26.821 65.842C26.8454 65.9242 26.8955 65.9964 26.964 66.048C27.0336 66.1016 27.1192 66.1301 27.207 66.129C27.2929 66.1295 27.3764 66.1009 27.444 66.048C27.5129 65.9966 27.5634 65.9244 27.588 65.842L28.499 62.817L28.848 63.517C28.879 63.5846 28.9294 63.6415 28.9928 63.6803C29.0562 63.7191 29.1297 63.7382 29.204 63.735L29.203 63.742ZM32.397 61.072C32.3735 61.7453 32.15 62.3963 31.755 62.942H29.448L28.756 61.563C28.722 61.4917 28.6663 61.4329 28.597 61.395C28.5446 61.3661 28.4864 61.3493 28.4266 61.3458C28.3668 61.3424 28.3071 61.3524 28.2517 61.3752C28.1963 61.3979 28.1467 61.4328 28.1066 61.4772C28.0666 61.5217 28.0369 61.5746 28.02 61.632L27.22 64.314L25.997 60.033C25.9716 59.9497 25.9192 59.8772 25.848 59.827C25.7783 59.7725 25.6925 59.7426 25.604 59.742C25.516 59.7417 25.4304 59.7711 25.3612 59.8256C25.292 59.8801 25.2433 59.9563 25.223 60.042L24.5 62.942H21.861C21.4655 62.3961 21.2416 61.7447 21.218 61.071C21.195 60.6775 21.2536 60.2835 21.39 59.9137C21.5265 59.5439 21.7379 59.2063 22.011 58.922C22.3063 58.6539 22.652 58.4473 23.0281 58.3145C23.4041 58.1816 23.8028 58.125 24.201 58.148C24.4695 58.1498 24.736 58.195 24.99 58.282C25.2539 58.3689 25.5054 58.49 25.738 58.642C25.9687 58.794 26.1687 58.9363 26.338 59.069C26.5037 59.2015 26.6619 59.343 26.812 59.493C26.9621 59.343 27.1203 59.2015 27.286 59.069C27.4527 58.9357 27.6527 58.7933 27.886 58.642C28.1188 58.4892 28.3706 58.3675 28.635 58.28C28.889 58.193 29.1555 58.1478 29.424 58.146C29.8222 58.123 30.2209 58.1796 30.597 58.3124C30.973 58.4453 31.3187 58.6519 31.614 58.92C31.8865 59.204 32.0975 59.5411 32.2338 59.9104C32.3701 60.2797 32.4287 60.6731 32.406 61.066L32.397 61.072Z" fill="#00ADB5"/>
</g>
<defs>
<clipPath id="clip0">
<rect width="187.954" height="70.219" fill="white"/>
</clipPath>
</defs>
</svg>
